<svg width="48" height="51" viewBox="0 0 48 51" fill="none" xmlns="http://www.w3.org/2000/svg">
<path d="M29 21.2506C29 19.5686 31.1056 19.1228 31.6642 20.6966C33.0154 24.5036 34 27.9091 34 29.7504C34 35.6184 29.5228 40.3754 24 40.3754C18.4772 40.3754 14 35.6184 14 29.7504C14 27.7723 15.1364 23.9885 16.6431 19.8411C18.5949 14.4687 19.5707 11.7825 20.7754 11.6378C21.1608 11.5915 21.5814 11.6747 21.9252 11.8654C23 12.4613 23 15.3911 23 21.2506C23 23.011 24.3432 24.4381 26 24.4381C27.6568 24.4381 29 23.011 29 21.2506Z" stroke="white" stroke-width="1.6"/>
<path d="M22.0002 40.3751L21.4746 38.979C20.5634 36.5586 20.9476 33.8044 22.4802 31.7688C23.2594 30.734 24.741 30.734 25.5202 31.7688C27.0528 33.8044 27.437 36.5586 26.5258 38.979L26.0002 40.3751" stroke="white" stroke-width="1.6"/>
</svg>
