<svg width="30" height="30" viewBox="0 0 30 30" fill="none" xmlns="http://www.w3.org/2000/svg">
<path d="M15.0049 2.96802L16.6754 4.63856C17.5615 5.52467 18.0593 6.72649 18.0593 7.97964C18.0593 9.23278 17.5615 10.4346 16.6754 11.3207L15.0049 12.9913L13.3255 11.3119C12.4433 10.425 11.9488 9.22437 11.9504 7.97339C11.9521 6.72241 12.4498 5.52313 13.3343 4.63856L15.0049 2.96802Z" stroke="white" stroke-width="0.8" stroke-miterlimit="10"/>
<path d="M22.0874 10.3374V12.6999C22.0842 13.9401 21.5936 15.1294 20.7213 16.011C19.849 16.8927 18.665 17.396 17.4249 17.4124H15.0624V15.0624C15.0623 13.82 15.5515 12.6276 16.4242 11.7432C17.2968 10.8589 18.4826 10.3538 19.7249 10.3374H22.0874Z" stroke="white" stroke-width="0.8" stroke-miterlimit="10"/>
<path d="M7.9251 10.3374H10.2751C11.5175 10.3373 12.7099 10.8265 13.5943 11.6992C14.4786 12.5718 14.9837 13.7576 15.0001 14.9999V17.3624H12.6376C11.3844 17.3624 10.1826 16.8646 9.29652 15.9785C8.41041 15.0924 7.9126 13.8905 7.9126 12.6374V10.3374H7.9251Z" stroke="white" stroke-width="0.8" stroke-miterlimit="10"/>
<path d="M22.0752 17.425V19.7875C22.0752 20.408 21.953 21.0225 21.7155 21.5957C21.4781 22.169 21.13 22.6899 20.6913 23.1286C20.2525 23.5674 19.7316 23.9154 19.1584 24.1529C18.5851 24.3903 17.9707 24.5125 17.3502 24.5125H15.0002V22.15C15.0002 20.8991 15.4963 19.6991 16.3797 18.8134C17.2631 17.9276 18.4617 17.4284 19.7127 17.425H22.0752Z" stroke="white" stroke-width="0.8" stroke-miterlimit="10"/>
<path d="M7.9251 17.425H10.2751C11.5261 17.425 12.726 17.9211 13.6118 18.8045C14.4975 19.688 14.9968 20.8866 15.0001 22.1375V24.5H12.6376C11.3844 24.5 10.1826 24.0022 9.29652 23.1161C8.41041 22.23 7.9126 21.0282 7.9126 19.775V17.425H7.9251Z" stroke="white" stroke-width="0.8" stroke-miterlimit="10"/>
<path d="M15 29.2249V12.7" stroke="white" stroke-width="0.8" stroke-miterlimit="10"/>
</svg>
