<svg width="21" height="22" viewBox="0 0 21 22" fill="none" xmlns="http://www.w3.org/2000/svg">
<path d="M11.2365 3.10171V0.595215H8.83154V2.49976L11.2365 3.10171Z" fill="#D9D9D9"/>
<path d="M5.25528 14.5605C5.2262 14.8497 5.20996 15.1427 5.20996 15.4384C5.20996 17.5571 5.60683 18.8574 6.49149 19.6194H13.6902C14.5748 18.8569 14.9715 17.5565 14.9715 15.4384C14.9715 15.1427 14.9552 14.8497 14.9262 14.5605H5.25528Z" fill="#D9D9D9"/>
<path d="M14.6339 8.60217C14.4121 8.83459 14.4121 9.21143 14.6339 9.44389C14.7449 9.56007 14.8903 9.61821 15.0357 9.61821C15.181 9.61821 15.3264 9.56007 15.4374 9.44389C15.613 9.25981 15.7673 9.05489 15.8958 8.83476C16.6537 7.53745 16.4651 5.87946 15.4374 4.80275C14.8457 4.18288 14.0589 3.84158 13.2223 3.84158C12.7636 3.84158 12.3203 3.9447 11.9157 4.13952C11.9158 3.80832 11.9365 3.50909 11.9786 3.24547C12.0112 3.04159 11.9401 2.84376 11.8046 2.71163V0.59516C11.8046 0.266492 11.5502 0 11.2365 0H8.83155C8.51786 0 8.26344 0.266492 8.26344 0.59516V1.74561L8.2264 1.73632C8.00775 1.68145 7.77925 1.76696 7.64292 1.95392C7.50658 2.14087 7.48816 2.39439 7.59595 2.60081L8.29465 3.93873C8.43263 5.25658 7.86091 7.18751 7.85632 7.20285C7.27045 9.10972 6.37036 10.228 6.26959 10.3493C6.26586 10.3538 6.26208 10.3584 6.25847 10.3631C5.27541 11.6219 4.69397 13.3702 4.64574 15.1923C4.64549 15.2008 4.64525 15.2094 4.645 15.218C4.64324 15.2913 4.64209 15.3648 4.64209 15.4384C4.64209 15.7287 4.64927 16.0051 4.66383 16.2683C4.76173 18.0365 5.19355 19.2063 6.02489 19.9836V21.4048C6.02489 21.7335 6.27927 22 6.593 22H10.0909C10.4046 22 10.659 21.7335 10.659 21.4048C10.659 21.0762 10.4046 20.8097 10.0909 20.8097H7.16111V20.2145H13.0208V20.8097H12.5058C12.1921 20.8097 11.9377 21.0762 11.9377 21.4048C11.9377 21.7335 12.192 22 12.5058 22H13.5889C13.9026 22 14.157 21.7335 14.157 21.4048V19.9838C14.2152 19.9294 14.2716 19.8732 14.326 19.8148C15.1628 18.9156 15.5398 17.5428 15.5398 15.4383C15.5398 15.3647 15.5386 15.2912 15.5369 15.2178C15.5366 15.2096 15.5364 15.2015 15.5362 15.1933C15.4881 13.3715 14.9068 11.6229 13.9238 10.3635C13.92 10.3586 13.9161 10.3537 13.912 10.3489C13.8497 10.2741 13.2883 9.58414 12.7674 8.39803C12.6362 8.09927 12.2987 7.96903 12.0138 8.1061C11.7288 8.24351 11.604 8.59697 11.7352 8.89556C12.3007 10.1833 12.9152 10.9613 13.0496 11.1238C13.6467 11.8915 14.0666 12.8835 14.2681 13.9654H5.91382C6.11529 12.8831 6.53533 11.891 7.13276 11.1233C7.33661 10.8765 8.30278 9.63471 8.93901 7.5637C8.96567 7.47514 9.58812 5.37745 9.42406 3.80939C9.41491 3.71306 9.38542 3.53349 9.29039 3.36566L9.20688 3.2056L10.7966 3.60353C10.7633 4.10197 10.7784 4.66684 10.8416 5.2904C10.8748 5.61726 11.1545 5.85432 11.4666 5.8193C11.6069 5.80366 11.7294 5.73555 11.8192 5.63595C12.1953 5.24644 12.693 5.03194 13.2223 5.03194C13.7556 5.03194 14.2569 5.24949 14.634 5.64455C15.2891 6.33076 15.4095 7.38719 14.9267 8.21361C14.8448 8.35364 14.7463 8.48452 14.6339 8.60217ZM14.3981 15.1557C14.4017 15.2512 14.4035 15.3455 14.4035 15.4384C14.4035 17.2424 14.1152 18.3623 13.4732 19.0242H6.70874C6.06669 18.3626 5.77826 17.2426 5.77826 15.4384C5.77826 15.3438 5.78031 15.2497 5.7836 15.1557H14.3981ZM9.39966 1.19032H10.6684V2.34755L9.39966 2.02997V1.19032Z" fill="white"/>
</svg>
