<svg width="22" height="22" viewBox="0 0 22 22" fill="none" xmlns="http://www.w3.org/2000/svg">
<g clip-path="url(#clip0_311_84)">
<path d="M18.8101 11.0457C16.2801 13.5757 11.9351 14.4007 9.76262 12.2374C7.59012 10.0741 8.42428 5.7199 11.0001 3.1899C11.4975 2.62889 12.1065 2.17783 12.7881 1.86554C13.4698 1.55325 14.2091 1.3866 14.9587 1.37625C15.7084 1.36589 16.452 1.51206 17.142 1.80541C17.832 2.09876 18.4532 2.53284 18.966 3.0799C19.5102 3.59576 19.9408 4.21949 20.2302 4.91124C20.5197 5.60298 20.6616 6.34751 20.6469 7.09723C20.6323 7.84694 20.4613 8.58535 20.1451 9.26524C19.8288 9.94514 19.3741 10.5516 18.8101 11.0457Z" stroke="white" stroke-width="0.8" stroke-miterlimit="10"/>
<path d="M11.3941 13.2274L8.10325 16.4999C7.87391 16.7184 7.70711 16.9942 7.62008 17.2988C7.53306 17.6034 7.52897 17.9257 7.60825 18.2324C7.74804 18.7016 7.69571 19.2071 7.46277 19.6377C7.22984 20.0684 6.83538 20.3888 6.36616 20.5286C5.89695 20.6684 5.39142 20.6161 4.96079 20.3832C4.53016 20.1502 4.2097 19.7558 4.06991 19.2865C3.97443 18.9604 3.79845 18.6636 3.55817 18.4233C3.31789 18.183 3.02103 18.007 2.69491 17.9115C2.46379 17.8423 2.24856 17.7283 2.06151 17.5759C1.87447 17.4235 1.71927 17.2357 1.60478 17.0233C1.4903 16.811 1.41876 16.5781 1.39426 16.3381C1.36976 16.0981 1.39278 15.8556 1.462 15.6245C1.53121 15.3933 1.64528 15.1781 1.79767 14.9911C1.95007 14.804 2.13782 14.6488 2.35019 14.5343C2.56257 14.4198 2.79541 14.3483 3.03544 14.3238C3.27546 14.2993 3.51795 14.3223 3.74908 14.3915C4.05844 14.4743 4.38442 14.472 4.69259 14.3849C5.00077 14.2978 5.27969 14.1291 5.49991 13.8965L8.79075 10.6057" stroke="white" stroke-width="0.8" stroke-miterlimit="10"/>
</g>
<defs>
<clipPath id="clip0_311_84">
<rect width="22" height="22" fill="white"/>
</clipPath>
</defs>
</svg>
